# xmcd
# Track frame offsets:
# 200
# 11750
# 20900
# 30200
# 42200
# 52100
# 61700
# 71600
# 84800
# 98225
# 110075
# 121400
# 134075
# 143750
# 157400
# 171200
#
# Disc length: 2438 seconds
# Revision: 0
# Processed by: cddbd v1.5.2PL0 Copyright (c) Steve Scherf et al.
# Submitted via: VisiTrax 2.11.3.279 - For more info visit www.synapsa.com
#
DISCID=e0098410
DTITLE=Lynn, Loretta - Golden Greats
DYEAR=1985
DGENRE=Country
TTITLE0=Before I'm Over You
TTITLE1=Wine Women And Song
TTITLE2=Happy Birthday
TTITLE3=Blue Kentucky Girl
TTITLE4=You Ain't Woman Enough
TTITLE5=Don't Come Home A 'Drinkin' (With Lovin' On Your Mind)
TTITLE6=First City
TTITLE7=Woman Of The World (Leave My Man Alone)
TTITLE8=Coal Miner's Daughter
TTITLE9=One's On The Way
TTITLE10=Love Is The Foundation
TTITLE11=Hey Loretta
TTITLE12=Trouble In Paradise
TTITLE13=Somebody Somewhere (Don't Know What He's Missin' Tonight)
TTITLE14=She's Got You
TTITLE15=Out Of My Head And Back In My Bed
EXTD=
EXTT0=
EXTT1=
EXTT2=
EXTT3=
EXTT4=
EXTT5=
EXTT6=
EXTT7=
EXTT8=
EXTT9=
EXTT10=
EXTT11=
EXTT12=
EXTT13=
EXTT14=
EXTT15=
PLAYORDER=
